<svg width="48" height="48" viewBox="0 0 48 48" fill="none" xmlns="http://www.w3.org/2000/svg">
<path d="M23.2731 8.60254V11.2133H18.7134V14.1906H16.2872V23.4577H14.131V20.5259H12.6764V23.4577H9.3042V39.398H38.6963V23.4577H35.2274V20.5259H33.7729V23.4577H31.5285V14.1906H28.9178V11.2133H24.7274V8.60254H23.2731ZM20.1679 12.6678H27.4634V14.1906H20.1679V12.6678ZM17.7417 15.6479H30.0714V37.9403H26.6395V32.5369H21.1764V37.9403H17.7445V23.4574H17.7416L17.7417 15.6479ZM10.7587 24.915H16.2872V37.9406H10.7587V24.915ZM31.5282 24.915H37.2413V37.9406H31.5282V24.915ZM22.6334 33.9945H25.1818V37.9406H22.6334V33.9945Z" fill="#0F0F0F"/>
<path d="M20.2937 17.6831V22.1169H27.3381V17.6831H20.2937ZM21.7506 19.1402H25.8811V20.6626H21.7506V19.1402Z" fill="#0F0F0F"/>
<path d="M20.2937 24.4858V28.9196H27.3381V24.4858H20.2937ZM21.7506 25.9401H25.8811V27.4625H21.7506V25.9401Z" fill="#0F0F0F"/>
<path d="M12.0973 30.6997V32.154H14.9483V30.6997H12.0973Z" fill="#0F0F0F"/>
<path d="M12.0973 27.5371V28.9942H14.9483V27.5371H12.0973Z" fill="#0F0F0F"/>
<path d="M12.0973 33.8599V35.3141H14.9483V33.8599H12.0973Z" fill="#0F0F0F"/>
<path d="M32.9576 30.6997V32.154H35.8086V30.6997H32.9576Z" fill="#0F0F0F"/>
<path d="M32.9576 27.5371V28.9942H35.8086V27.5371H32.9576Z" fill="#0F0F0F"/>
<path d="M32.9576 33.8599V35.3141H35.8086V33.8599H32.9576Z" fill="#0F0F0F"/>
</svg>
