<svg width="48" height="48" viewBox="0 0 48 48" fill="none" xmlns="http://www.w3.org/2000/svg">
<g clip-path="url(#clip0_666_125)">
<path d="M38.6537 18.4251L25.4686 12.3234C25.0085 12.1094 24.5073 11.9985 24 11.9985C23.4927 11.9985 22.9914 12.1094 22.5314 12.3234L9.34628 18.4251C8.94432 18.611 8.60396 18.908 8.36542 19.2812C8.12688 19.6543 8.00012 20.0879 8.00012 20.5308C8.00012 20.9736 8.12688 21.4073 8.36542 21.7804C8.60396 22.1535 8.94432 22.4506 9.34628 22.6365L13.7143 24.6582V32.1531C13.7166 32.8227 13.9136 33.4772 14.2813 34.0368C14.649 34.5964 15.1715 35.0371 15.7851 35.3051C18.3769 36.4489 21.1679 37.0733 24 37.1428C26.8317 37.0734 29.6224 36.449 32.2137 35.3051C32.8276 35.0373 33.3503 34.5967 33.7182 34.037C34.0861 33.4774 34.2833 32.8228 34.2857 32.1531V24.6582L35.4286 24.1291V30.2856C35.4286 30.5887 35.549 30.8794 35.7633 31.0938C35.9776 31.3081 36.2683 31.4285 36.5714 31.4285C36.8745 31.4285 37.1652 31.3081 37.3795 31.0938C37.5939 30.8794 37.7143 30.5887 37.7143 30.2856V23.0719L38.6526 22.6376C39.0548 22.4519 39.3955 22.1548 39.6343 21.7815C39.8731 21.4083 40 20.9745 40 20.5314C40 20.0883 39.8731 19.6544 39.6343 19.2812C39.3955 18.9079 39.0548 18.6108 38.6526 18.4251H38.6537ZM23.4914 14.3999C23.6508 14.326 23.8243 14.2877 24 14.2877C24.1757 14.2877 24.3492 14.326 24.5086 14.3999L37.6937 20.5645L24.5086 26.6674C24.3492 26.7413 24.1757 26.7796 24 26.7796C23.8243 26.7796 23.6508 26.7413 23.4914 26.6674L10.3063 20.4959L23.4914 14.3999ZM32 32.1531C31.998 32.3789 31.9302 32.5993 31.805 32.7872C31.6798 32.9751 31.5025 33.1225 31.2949 33.2114C28.9944 34.2321 26.5159 34.7912 24 34.8571C21.4837 34.7911 19.0049 34.232 16.704 33.2114C16.4966 33.1222 16.3197 32.9748 16.1947 32.7868C16.0697 32.5989 16.0021 32.3787 16 32.1531V25.7142L22.5314 28.7371C22.9913 28.9516 23.4925 29.0628 24 29.0628C24.5074 29.0628 25.0087 28.9516 25.4686 28.7371L32 25.7142V32.1531Z" fill="#0F0F0F"/>
</g>
<defs>
<clipPath id="clip0_666_125">
<rect width="32" height="26.2857" fill="white" transform="translate(8 10.8569)"/>
</clipPath>
</defs>
</svg>
