<svg width="16" height="16" viewBox="0 0 16 16" fill="none" xmlns="http://www.w3.org/2000/svg">
<g clip-path="url(#clip0_666_3627)">
<path fill-rule="evenodd" clip-rule="evenodd" d="M8 0C3.58173 0 0 3.58173 0 8C0 12.4183 3.58173 16 8 16C12.4183 16 16 12.4183 16 8C16 3.58173 12.4183 0 8 0ZM6.2411 3.7591C6.6962 3.7384 6.84163 3.73333 8.0004 3.73333H7.99907C9.1582 3.73333 9.30307 3.7384 9.7582 3.7591C10.2124 3.7799 10.5226 3.85183 10.7947 3.95733C11.0755 4.06623 11.3129 4.212 11.5502 4.44933C11.7876 4.6865 11.9333 4.92453 12.0427 5.20517C12.1476 5.47647 12.2196 5.7865 12.2409 6.24073C12.2613 6.69587 12.2667 6.84127 12.2667 8.00003C12.2667 9.1588 12.2613 9.30387 12.2409 9.759C12.2196 10.213 12.1476 10.5232 12.0427 10.7946C11.9333 11.0751 11.7876 11.3131 11.5502 11.5503C11.3131 11.7876 11.0755 11.9338 10.7949 12.0428C10.5234 12.1483 10.213 12.2202 9.75883 12.241C9.3037 12.2617 9.15873 12.2668 7.99987 12.2668C6.8412 12.2668 6.69587 12.2617 6.24073 12.241C5.7866 12.2202 5.47647 12.1483 5.205 12.0428C4.92453 11.9338 4.6865 11.7876 4.44943 11.5503C4.21217 11.3131 4.0664 11.0751 3.95733 10.7945C3.8519 10.5232 3.78 10.2131 3.7591 9.7589C3.7385 9.3038 3.73333 9.1588 3.73333 8.00003C3.73333 6.84127 3.73867 6.69577 3.75903 6.24063C3.77947 5.7866 3.85147 5.47647 3.95723 5.20507C4.06657 4.92453 4.21237 4.6865 4.4497 4.44933C4.68687 4.2121 4.9249 4.0663 5.20553 3.95733C5.47683 3.85183 5.78687 3.7799 6.2411 3.7591Z" fill="#F4893C"/>
<path fill-rule="evenodd" clip-rule="evenodd" d="M7.61769 4.50229C7.69199 4.50219 7.77196 4.50222 7.85822 4.50225L8.00046 4.50229C9.13966 4.50229 9.27469 4.50639 9.72456 4.52682C10.1406 4.54585 10.3663 4.61535 10.5167 4.67375C10.7159 4.75109 10.8578 4.84355 11.0071 4.99289C11.1564 5.14222 11.2488 5.28445 11.3264 5.48355C11.3848 5.63379 11.4544 5.85955 11.4733 6.27555C11.4937 6.72535 11.4982 6.86045 11.4982 7.99912C11.4982 9.13782 11.4937 9.27292 11.4733 9.72272C11.4543 10.1387 11.3848 10.3645 11.3264 10.5147C11.249 10.7138 11.1564 10.8556 11.0071 11.0049C10.8577 11.1542 10.7159 11.2467 10.5167 11.324C10.3665 11.3827 10.1406 11.452 9.72456 11.471C9.27476 11.4915 9.13966 11.4959 8.00046 11.4959C6.86116 11.4959 6.72612 11.4915 6.27632 11.471C5.86032 11.4518 5.63456 11.3823 5.48406 11.3239C5.28496 11.2466 5.14272 11.1541 4.99339 11.0048C4.84406 10.8554 4.75162 10.7136 4.67409 10.5144C4.61569 10.3642 4.54609 10.1384 4.52716 9.72235C4.50672 9.27259 4.50262 9.13745 4.50262 7.99805C4.50262 6.85869 4.50672 6.72429 4.52716 6.27449C4.54619 5.85849 4.61569 5.63272 4.67409 5.48232C4.75142 5.28319 4.84406 5.14099 4.99339 4.99165C5.14272 4.84232 5.28496 4.74985 5.48406 4.67235C5.63446 4.61369 5.86032 4.54435 6.27632 4.52522C6.66992 4.50745 6.82249 4.50212 7.61769 4.50122V4.50229ZM10.278 5.21075C9.99532 5.21075 9.76596 5.43982 9.76596 5.72259C9.76596 6.00525 9.99532 6.23459 10.278 6.23459C10.5607 6.23459 10.79 6.00525 10.79 5.72259C10.79 5.43992 10.5607 5.21059 10.278 5.21059V5.21075ZM5.80932 8.00012C5.80932 6.79009 6.79032 5.80902 8.00036 5.80899C9.21042 5.80899 10.1912 6.79005 10.1912 8.00012C10.1912 9.21019 9.21049 10.1908 8.00046 10.1908C6.79039 10.1908 5.80932 9.21019 5.80932 8.00012Z" fill="#F4893C"/>
<path d="M8.00042 6.57776C8.78585 6.57776 9.42265 7.21449 9.42265 7.99999C9.42265 8.78542 8.78585 9.42223 8.00042 9.42223C7.21492 9.42223 6.57819 8.78542 6.57819 7.99999C6.57819 7.21449 7.21492 6.57776 8.00042 6.57776Z" fill="#F4893C"/>
</g>
<defs>
<clipPath id="clip0_666_3627">
<rect width="16" height="16" fill="white"/>
</clipPath>
</defs>
</svg>
