<svg width="40" height="40" viewBox="0 0 40 40" fill="none" xmlns="http://www.w3.org/2000/svg">
<g clip-path="url(#clip0_402_5914)">
<path d="M15.6667 14C14.7477 14 14 14.7477 14 15.6667C14 16.5857 14.7477 17.3333 15.6667 17.3333C16.5857 17.3333 17.3333 16.5857 17.3333 15.6667C17.3333 14.7477 16.5857 14 15.6667 14ZM15.6667 16.6667C15.1153 16.6667 14.6667 16.218 14.6667 15.6667C14.6667 15.1153 15.1153 14.6667 15.6667 14.6667C16.218 14.6667 16.6667 15.1153 16.6667 15.6667C16.6667 16.218 16.218 16.6667 15.6667 16.6667ZM20.92 18.61C21.73 16.84 21.3633 14.7597 19.9733 13.3667C19.09 12.4867 17.9167 12 16.67 12C15.4233 12 14.25 12.4867 13.3667 13.3667C12.4867 14.25 12 15.4233 12 16.67C12 17.9167 12.4867 19.09 13.3667 19.9733C14.25 20.8533 15.4233 21.34 16.67 21.34C17.3367 21.34 18.0033 21.1967 18.61 20.92L19.8963 22.2067L21.6863 22.8397L22.04 24.44L23.6133 24.7867L23.9733 26.4063L25.2933 26.4363L26.1333 28H28V25.8633L20.92 18.61ZM27.3333 27.3333H26.5333L25.6967 25.78L24.51 25.7533L24.173 24.2267L22.5997 23.88L22.2567 22.3333L20.26 21.6267L18.7403 20.1067L18.5237 20.22C17.9533 20.5167 17.3133 20.673 16.67 20.673C15.6 20.673 14.5967 20.2563 13.84 19.4997C13.0833 18.7433 12.6667 17.7403 12.6667 16.67C12.6667 15.6 13.0833 14.5967 13.84 13.84C14.5967 13.0833 15.6 12.6667 16.67 12.6667C17.7403 12.6667 18.7437 13.0833 19.5 13.84C20.7433 15.0833 21.0333 16.9637 20.22 18.5237L20.11 18.737L27.3333 26.1367V27.3333Z" fill="#0F0F0F"/>
</g>
<defs>
<clipPath id="clip0_402_5914">
<rect width="16" height="16" fill="white" transform="translate(12 12)"/>
</clipPath>
</defs>
</svg>
