<svg width="40" height="40" viewBox="0 0 40 40" fill="none" xmlns="http://www.w3.org/2000/svg">
<g clip-path="url(#clip0_402_6021)">
<path fill-rule="evenodd" clip-rule="evenodd" d="M19.9259 23.2087V24.7461C19.9259 24.9068 20.0634 25.037 20.2222 25.037C20.3859 25.037 20.5185 24.902 20.5185 24.7461V23.2087C20.8638 23.0867 21.1111 22.7574 21.1111 22.3704C21.1111 21.8795 20.7131 21.4815 20.2222 21.4815C19.7313 21.4815 19.3333 21.8795 19.3333 22.3704C19.3333 22.7574 19.5807 23.0867 19.9259 23.2087ZM19.3333 23.5557V24.7397C19.3333 25.2312 19.7279 25.6296 20.2222 25.6296C20.7131 25.6296 21.1111 25.2319 21.1111 24.7397V23.5557C21.4709 23.2854 21.7037 22.8551 21.7037 22.3704C21.7037 21.5522 21.0404 20.8889 20.2222 20.8889C19.404 20.8889 18.7407 21.5522 18.7407 22.3704C18.7407 22.8551 18.9735 23.2854 19.3333 23.5557ZM15.7778 18.5185V16.444C15.7778 13.9892 17.7676 12 20.2222 12C22.6718 12 24.6667 13.9896 24.6667 16.444V18.5185C25.6499 18.5213 26.4444 19.3187 26.4444 20.3019V26.2166C26.4444 27.2079 25.6462 28 24.6615 28H15.783C14.7974 28 14 27.2015 14 26.2166V20.3019C14 19.3123 14.7955 18.5213 15.7778 18.5185ZM16.3704 18.5185V16.4405C16.3704 14.316 18.0949 12.5926 20.2222 12.5926C22.3452 12.5926 24.0741 14.3154 24.0741 16.4405V18.5185H23.4815V16.4498C23.4815 14.6468 22.0186 13.1852 20.2222 13.1852C18.4222 13.1852 16.963 14.6438 16.963 16.4498V18.5185H16.3704ZM17.5556 18.5185V16.445C17.5556 14.9684 18.7495 13.7778 20.2222 13.7778C21.692 13.7778 22.8889 14.9719 22.8889 16.445V18.5185H17.5556ZM15.7763 19.1111C15.1225 19.1111 14.5926 19.6427 14.5926 20.2998V26.2188C14.5926 26.8752 15.1205 27.4074 15.7763 27.4074H24.6682C25.3219 27.4074 25.8519 26.8758 25.8519 26.2188V20.2998C25.8519 19.6433 25.3239 19.1111 24.6682 19.1111H15.7763Z" fill="#0F0F0F"/>
</g>
<defs>
<clipPath id="clip0_402_6021">
<rect width="12.4444" height="16" fill="none" transform="translate(13.7778 12)"/>
</clipPath>
</defs>
</svg>
