<svg width="40" height="40" viewBox="0 0 40 40" fill="none" xmlns="http://www.w3.org/2000/svg">
<rect width="40" height="40" fill="white"/>
<g clip-path="url(#clip0_402_5964)">
<path d="M23.395 27.8049C23.2994 27.8049 23.2038 27.801 23.1078 27.7939C21.5294 27.6735 20.0182 27.1049 18.7519 26.1549C16.8185 24.7048 15.1012 22.9872 13.6514 21.0537C12.7013 19.7874 12.1327 18.2762 12.0124 16.6978C11.9708 16.1618 12.0458 15.6232 12.2323 15.119C12.4187 14.6149 12.7122 14.1571 13.0926 13.7772L14.0705 12.798C14.4568 12.4125 14.9802 12.196 15.5259 12.196C16.0717 12.196 16.5951 12.4125 16.9814 12.798L17.8656 13.6827C18.0568 13.8738 18.2084 14.1007 18.3119 14.3505C18.4153 14.6002 18.4685 14.8679 18.4685 15.1381C18.4685 15.4084 18.4153 15.6761 18.3119 15.9258C18.2084 16.1755 18.0568 16.4025 17.8656 16.5936L17.3583 17.1009C17.15 17.3101 17.0203 17.5849 16.9912 17.8787C16.9622 18.1725 17.0354 18.4674 17.1987 18.7134C18.2255 20.2564 19.5492 21.5797 21.0926 22.606C21.3387 22.7691 21.6335 22.8422 21.9272 22.8131C22.221 22.784 22.4957 22.6545 22.7051 22.4464L23.2124 21.9391C23.4035 21.748 23.6304 21.5964 23.8801 21.4929C24.1298 21.3895 24.3975 21.3362 24.6678 21.3362C24.9381 21.3362 25.2057 21.3895 25.4555 21.4929C25.7052 21.5964 25.9321 21.748 26.1232 21.9391L27.0079 22.8234C27.199 23.0146 27.3506 23.2414 27.4541 23.4912C27.5576 23.7409 27.6108 24.0085 27.6108 24.2788C27.6108 24.5491 27.5576 24.8168 27.4541 25.0665C27.3506 25.3162 27.199 25.5431 27.0079 25.7342L26.0276 26.7122C25.6821 27.0584 25.2718 27.3331 24.8201 27.5206C24.3684 27.7081 23.8841 27.8047 23.395 27.8049ZM15.5257 12.9756C15.358 12.9754 15.1918 13.0083 15.0368 13.0725C14.8817 13.1366 14.7409 13.2308 14.6223 13.3495L13.6432 14.329C13.3425 14.6293 13.1105 14.9913 12.963 15.3899C12.8156 15.7885 12.7562 16.2143 12.789 16.638C12.8986 18.0685 13.4142 19.4379 14.2754 20.5854C15.6809 22.4592 17.3456 24.1238 19.2194 25.5294C20.3668 26.3907 21.7362 26.9064 23.1667 27.0158C23.5904 27.048 24.016 26.9884 24.4146 26.8409C24.8131 26.6935 25.1751 26.4618 25.4758 26.1616L26.4549 25.1824C26.6945 24.9427 26.8291 24.6178 26.8291 24.2788C26.8291 23.9399 26.6945 23.6149 26.4549 23.3752L25.5702 22.4909C25.327 22.2583 25.0034 22.1285 24.6668 22.1285C24.3303 22.1285 24.0067 22.2583 23.7634 22.4909L23.2561 22.9982C22.9191 23.3337 22.4766 23.5425 22.0034 23.5894C21.5302 23.6363 21.0553 23.5183 20.659 23.2554C19.0301 22.1719 17.6333 20.775 16.5497 19.1461C16.2868 18.7499 16.1688 18.275 16.2157 17.8018C16.2625 17.3286 16.4714 16.886 16.8069 16.5491L17.3142 16.0418C17.5538 15.8021 17.6884 15.4772 17.6884 15.1383C17.6884 14.7995 17.5538 14.4745 17.3142 14.2349L16.4296 13.3499C16.311 13.2311 16.17 13.1369 16.015 13.0726C15.8599 13.0084 15.6936 12.9754 15.5257 12.9756Z" fill="#0F0F0F"/>
</g>
<defs>
<clipPath id="clip0_402_5964">
<rect width="16" height="15.6098" fill="white" transform="translate(12 12.1951)"/>
</clipPath>
</defs>
</svg>
