<svg width="40" height="40" viewBox="0 0 40 40" fill="none" xmlns="http://www.w3.org/2000/svg">
<g clip-path="url(#clip0_402_5912)">
<path d="M22.5714 27.5714H16.8571C16.0994 27.5714 15.3727 27.2704 14.8368 26.7346C14.301 26.1988 14 25.472 14 24.7143V24.1429C14 22.7789 14.5418 21.4708 15.5063 20.5063C16.4708 19.5418 17.7789 19 19.1429 19H20.2857C21.6497 19 22.9578 19.5418 23.9223 20.5063C24.8867 21.4708 25.4286 22.7789 25.4286 24.1429V24.7143C25.4286 25.472 25.1276 26.1988 24.5917 26.7346C24.0559 27.2704 23.3292 27.5714 22.5714 27.5714ZM19.1429 20.1429C18.082 20.1429 17.0646 20.5643 16.3144 21.3144C15.5643 22.0646 15.1429 23.082 15.1429 24.1429V24.7143C15.1429 25.1689 15.3235 25.605 15.645 25.9265C15.9665 26.248 16.4025 26.4286 16.8571 26.4286H22.5714C23.0261 26.4286 23.4621 26.248 23.7836 25.9265C24.1051 25.605 24.2857 25.1689 24.2857 24.7143V24.1429C24.2857 23.082 23.8643 22.0646 23.1141 21.3144C22.364 20.5643 21.3466 20.1429 20.2857 20.1429H19.1429Z" fill="none"/>
<path d="M20.4286 18.8571C19.7505 18.8571 19.0876 18.6561 18.5238 18.2793C17.9599 17.9026 17.5205 17.3671 17.261 16.7406C17.0015 16.1141 16.9336 15.4248 17.0659 14.7597C17.1982 14.0946 17.5247 13.4837 18.0042 13.0042C18.4837 12.5247 19.0946 12.1982 19.7597 12.0659C20.4248 11.9336 21.1141 12.0015 21.7406 12.261C22.3671 12.5205 22.9026 12.9599 23.2793 13.5238C23.6561 14.0876 23.8571 14.7505 23.8571 15.4286C23.8571 16.3379 23.4959 17.21 22.8529 17.8529C22.21 18.4959 21.3379 18.8571 20.4286 18.8571ZM20.4286 13.1429C19.9765 13.1429 19.5346 13.2769 19.1587 13.5281C18.7828 13.7792 18.4898 14.1362 18.3168 14.5539C18.1438 14.9715 18.0986 15.4311 18.1868 15.8745C18.275 16.3179 18.4927 16.7252 18.8123 17.0448C19.132 17.3645 19.5393 17.5822 19.9827 17.6704C20.426 17.7586 20.8856 17.7133 21.3033 17.5403C21.7209 17.3673 22.0779 17.0743 22.3291 16.6984C22.5802 16.3226 22.7143 15.8806 22.7143 15.4286C22.7143 14.8224 22.4735 14.241 22.0448 13.8123C21.6162 13.3837 21.0348 13.1429 20.4286 13.1429Z" fill="none"/>
</g>
<defs>
<clipPath id="clip0_402_5912">
<rect width="11.4286" height="16" fill="none" transform="translate(14.2856 12)"/>
</clipPath>
</defs>
</svg>
