<svg width="40" height="40" viewBox="0 0 40 40" fill="none" xmlns="http://www.w3.org/2000/svg">
<rect width="40" height="40" fill="white"/>
<g clip-path="url(#clip0_402_6030)">
<path d="M25.601 14.326C24.8675 13.5857 23.9939 12.9987 23.0313 12.5994C22.0687 12.2001 21.0362 11.9963 19.994 12C15.627 12 12.068 15.558 12.064 19.926C12.064 21.325 12.43 22.686 13.121 23.891L12 28L16.204 26.898C17.367 27.5309 18.6699 27.8626 19.994 27.863H19.998C24.366 27.863 27.924 24.305 27.928 19.933C27.929 18.891 27.7238 17.8592 27.3243 16.8969C26.9247 15.9346 26.3387 15.0608 25.6 14.326H25.601ZM19.994 26.521C18.813 26.5214 17.6537 26.2036 16.638 25.601L16.398 25.457L13.904 26.111L14.57 23.678L14.414 23.427C13.7538 22.3773 13.4046 21.162 13.407 19.922C13.407 16.296 16.364 13.338 19.998 13.338C20.8637 13.3364 21.7212 13.5063 22.521 13.8377C23.3208 14.1691 24.0471 14.6555 24.658 15.269C25.271 15.88 25.757 16.6064 26.0879 17.4062C26.4188 18.206 26.5881 19.0634 26.586 19.929C26.582 23.568 23.625 26.521 19.994 26.521ZM23.609 21.587C23.412 21.488 22.439 21.009 22.256 20.941C22.074 20.876 21.941 20.842 21.811 21.04C21.678 21.237 21.298 21.686 21.184 21.815C21.07 21.948 20.952 21.963 20.754 21.865C20.557 21.765 19.918 21.557 19.162 20.88C18.572 20.355 18.177 19.705 18.059 19.508C17.945 19.31 18.048 19.204 18.147 19.105C18.234 19.017 18.344 18.873 18.443 18.759C18.543 18.645 18.576 18.561 18.641 18.429C18.706 18.295 18.675 18.181 18.626 18.082C18.576 17.983 18.181 17.006 18.014 16.612C17.854 16.223 17.691 16.277 17.569 16.272C17.455 16.265 17.322 16.265 17.189 16.265C17.0886 16.2675 16.9897 16.2907 16.8987 16.3332C16.8077 16.3757 16.7264 16.4366 16.66 16.512C16.478 16.71 15.969 17.189 15.969 18.166C15.969 19.143 16.679 20.082 16.779 20.215C16.877 20.348 18.173 22.347 20.162 23.207C20.632 23.412 21.002 23.533 21.291 23.625C21.766 23.777 22.195 23.754 22.537 23.705C22.917 23.647 23.708 23.225 23.875 22.762C24.039 22.298 24.039 21.902 23.989 21.819C23.94 21.735 23.807 21.686 23.609 21.587Z" fill="#0F0F0F"/>
</g>
<defs>
<clipPath id="clip0_402_6030">
<rect width="16" height="16" fill="white" transform="translate(12 12)"/>
</clipPath>
</defs>
</svg>
